<svg version="1.1" xmlns="http://www.w3.org/2000/svg" xmlns:xlink="http://www.w3.org/1999/xlink" x="0px" y="0px"
	 viewBox="0 0 100 100" style="enable-background:new 0 0 100 100;" xml:space="preserve">
<g id="Layer_1">
	<g>
		<linearGradient id="SVGID_1_" gradientUnits="userSpaceOnUse" x1="15.3519" y1="84.6481" x2="84.648" y2="15.352">
			<stop  offset="0" style="stop-color:#FF305A"/>
			<stop  offset="1" style="stop-color:#FF4740"/>
		</linearGradient>
		<circle style="fill:url(#SVGID_1_);" cx="50" cy="50" r="49"/>
		<g>
			<path style="fill:#FFFFFF;" d="M29.426,72.181c1.435,1.284,13.619-10.901,16.01-13.522c2.123-2.327,12.914-14.539,14.025-18.19
				c-0.228-0.143-0.454-0.304-0.676-0.485c-0.126-0.102-0.245-0.21-0.359-0.32c-3.697,1.743-15.36,14.139-17.088,16.206
				C39.402,58.185,28.344,71.214,29.426,72.181z"/>
			<path style="fill:#FFFFFF;" d="M59.145,38.908c1.958,2.087,4.33,1.692,6.318-0.064c1.968-1.738,2.059-5.051,2.387-6.123
				c0.741-2.429,5.813-3.791,5.813-3.791s-5.669-2.622-11.242,0.891C58.707,32.162,56.61,36.206,59.145,38.908z"/>
			<g>
				<path style="fill:#FFFFFF;" d="M48.067,44.757l-8.251-8.251c-0.154-0.154-0.154-0.309-0.103-0.514
					c0.874-2.366,0.36-5.092-1.543-6.943c-1.8-1.8-4.269-2.314-6.532-1.697c-0.36,0.103-0.463,0.566-0.206,0.823l2.263,2.263
					c0.977,0.977,0.977,2.572,0,3.549s-2.572,0.977-3.549,0l-2.263-2.263c-0.257-0.257-0.72-0.154-0.823,0.206
					c-0.617,2.212-0.103,4.732,1.697,6.48c1.903,1.903,4.629,2.366,6.943,1.543c0.154-0.051,0.36-0.051,0.514,0.103l8.277,8.277
					L48.067,44.757z"/>
				<path style="fill:#FFFFFF;" d="M69.622,60.5c-1.903-1.903-4.629-2.366-6.943-1.543c-0.154,0.051-0.36,0.051-0.514-0.103
					l-7.082-7.082l-3.575,3.575l7.108,7.108c0.154,0.154,0.154,0.309,0.103,0.514c-0.874,2.366-0.36,5.092,1.543,6.943
					c1.749,1.749,4.269,2.314,6.48,1.697c0.36-0.103,0.463-0.566,0.206-0.823l-2.212-2.314c-1.029-0.977-1.029-2.52,0-3.497
					c0.977-0.977,2.572-0.977,3.549,0l2.263,2.263c0.257,0.257,0.669,0.103,0.771-0.257C71.937,64.769,71.371,62.249,69.622,60.5z"
					/>
			</g>
		</g>
	</g>
</g>
<g id="nyt_x5F_exporter_x5F_info" style="display:none;">
</g>
</svg>
