<?xml version="1.0" encoding="iso-8859-1"?>
<!DOCTYPE svg PUBLIC "-//W3C//DTD SVG 1.1//EN" "http://www.w3.org/Graphics/SVG/1.1/DTD/svg11.dtd">
<svg version="1.1" id="Capa_1" xmlns="http://www.w3.org/2000/svg" xmlns:xlink="http://www.w3.org/1999/xlink" x="0px" y="0px"
	 viewBox="0 0 441 441" style="enable-background:new 0 0 441 441;" xml:space="preserve">
<path d="M435.5,155.408c3.037,0,5.5-2.462,5.5-5.5s-2.463-5.5-5.5-5.5h-84.329v-50.7H435.5c3.037,0,5.5-2.462,5.5-5.5
	s-2.463-5.5-5.5-5.5h-84.329V12.76c0-3.038-2.463-5.5-5.5-5.5s-5.5,2.462-5.5,5.5v69.947H100.829V12.76c0-3.038-2.462-5.5-5.5-5.5
	s-5.5,2.462-5.5,5.5v69.947H5.5c-3.038,0-5.5,2.462-5.5,5.5s2.462,5.5,5.5,5.5h84.329v50.7H5.5c-3.038,0-5.5,2.462-5.5,5.5
	s2.462,5.5,5.5,5.5h84.329v169.037H5.5c-3.038,0-5.5,2.462-5.5,5.5s2.462,5.5,5.5,5.5h84.329v92.795c0,3.038,2.462,5.5,5.5,5.5
	s5.5-2.462,5.5-5.5v-92.795h239.342v92.795c0,3.038,2.463,5.5,5.5,5.5s5.5-2.462,5.5-5.5v-92.795H435.5c3.037,0,5.5-2.462,5.5-5.5
	s-2.463-5.5-5.5-5.5h-84.329V155.408H435.5z M340.171,93.707v50.7H169.725l18.727-50.7H340.171z M100.829,93.707h75.897
	l-18.727,50.7h-57.169V93.707z M153.935,155.408l-53.106,143.773V155.408H153.935z M165.865,324.444l13.05-37.867h81.614
	l13.047,37.867H165.865z M340.171,324.444h-54.96l-15.56-45.159c-0.765-2.219-2.854-3.708-5.2-3.708h-89.458
	c-2.347,0-4.435,1.489-5.2,3.708l-15.563,45.159h-51.007l62.438-169.037h46.442l-27.327,79.562c-0.577,1.68-0.307,3.536,0.725,4.982
	c1.033,1.446,2.7,2.304,4.477,2.304h59.486c1.776,0,3.444-0.858,4.477-2.304c1.032-1.446,1.303-3.302,0.726-4.982l-27.323-79.562
	h112.827V324.444z M219.723,167.086l22.037,64.17h-44.077L219.723,167.086z"/>
</svg>
