<svg version="1.1" xmlns="http://www.w3.org/2000/svg" xmlns:xlink="http://www.w3.org/1999/xlink" x="0px" y="0px"
	 viewBox="0 0 100 100" style="enable-background:new 0 0 100 100;" xml:space="preserve">
<g id="Layer_1">
	<g>
		<g>
			<g>
				<path style="fill:#FFFFFF;" d="M8.232,66.672c28.217,0.222,56.435,0.288,84.653,0.297c1.8,0.001,1.803-2.796,0-2.797
					c-28.218-0.009-56.436-0.075-84.653-0.297C6.432,63.861,6.43,66.658,8.232,66.672L8.232,66.672z"/>
			</g>
		</g>
		<linearGradient id="SVGID_1_" gradientUnits="userSpaceOnUse" x1="15.3519" y1="84.6481" x2="84.648" y2="15.352">
			<stop  offset="0" style="stop-color:#613BA6"/>
			<stop  offset="1" style="stop-color:#C661FF"/>
		</linearGradient>
		<circle style="fill:url(#SVGID_1_);" cx="50" cy="50" r="49"/>
		<g>
			<path style="fill:#FFFFFF;" d="M27.224,61.345c-0.979,0-1.776,0.797-1.776,1.776s0.797,1.776,1.776,1.776S29,64.1,29,63.121
				S28.203,61.345,27.224,61.345z M27.224,63.646c-0.29,0-0.526-0.236-0.526-0.526c0-0.29,0.236-0.526,0.526-0.526
				c0.29,0,0.526,0.236,0.526,0.526C27.75,63.411,27.514,63.646,27.224,63.646z"/>
			<path style="fill:#FFFFFF;" d="M24.618,44.825l-2.543,4.579l2.543,4.579h5.229l2.544-4.579l-2.544-4.579H24.618z M28.614,52.319
				h-2.763l-1.453-2.914l1.453-2.914h2.763l1.453,2.914L28.614,52.319z"/>
			<path style="fill:#FFFFFF;" d="M50.473,61.345c-0.979,0-1.776,0.797-1.776,1.776s0.797,1.776,1.776,1.776
				s1.776-0.797,1.776-1.776S51.452,61.345,50.473,61.345z M50.473,63.646c-0.29,0-0.526-0.236-0.526-0.526
				c0-0.29,0.236-0.526,0.526-0.526s0.526,0.236,0.526,0.526C50.998,63.411,50.763,63.646,50.473,63.646z"/>
			<path style="fill:#FFFFFF;" d="M73.721,61.345c-0.979,0-1.775,0.797-1.775,1.776s0.796,1.776,1.775,1.776
				c0.979,0,1.776-0.797,1.776-1.776S74.7,61.345,73.721,61.345z M73.721,63.646c-0.29,0-0.526-0.236-0.526-0.526
				c0-0.29,0.236-0.526,0.526-0.526s0.526,0.236,0.526,0.526C74.247,63.411,74.011,63.646,73.721,63.646z"/>
			<path style="fill:#FFFFFF;" d="M78.39,32.456h-9.801c-1.916,0-3.647,1.73-3.647,3.647v12.764h-6.154V36.102
				c0-1.916-1.73-3.647-3.647-3.647h-9.801c-1.916,0-3.647,1.73-3.647,3.647v12.764h-6.154V36.102c0-1.916-1.73-3.647-3.647-3.647
				h-9.801c-1.916,0-3.647,1.73-3.647,3.647v27.58c0,1.916,1.73,3.647,3.647,3.647h9.801c1.916,0,3.647-1.73,3.647-3.647V50.918
				h6.154v12.764c0,1.916,1.73,3.647,3.647,3.647h9.801c1.916,0,3.647-1.73,3.647-3.647V50.918h6.154v12.764
				c0,1.916,1.73,3.647,3.647,3.647h9.801c1.916,0,3.647-1.73,3.647-3.647v-27.58C82.036,34.186,80.306,32.456,78.39,32.456z
				 M33.872,63.949c0,0.975-0.791,1.766-1.766,1.766H21.962c-0.975,0-1.766-0.791-1.766-1.766V36.028
				c0-0.975,0.791-1.766,1.766-1.766h10.143c0.975,0,1.766,0.791,1.766,1.766V63.949z M56.736,63.682
				c0,0.974-0.621,1.595-1.595,1.595h-9.801c-0.974,0-1.595-0.622-1.595-1.595V50.918H45.6c0.381,0.941,1.302,1.608,2.378,1.608
				c1.416,0,2.568-1.152,2.568-2.568c0-1.416-1.152-2.568-2.568-2.568c-1.024,0-1.903,0.607-2.315,1.476h-1.919V36.102
				c0-0.974,0.621-1.595,1.595-1.595h9.801c0.974,0,1.595,0.622,1.595,1.595V63.682z M47.218,49.958c0-0.419,0.341-0.76,0.76-0.76
				c0.419,0,0.76,0.341,0.76,0.76c0,0.419-0.341,0.76-0.76,0.76C47.559,50.718,47.218,50.378,47.218,49.958z M79.985,63.682
				c0,0.974-0.622,1.595-1.595,1.595h-9.801c-0.974,0-1.595-0.622-1.595-1.595V50.918h1.172c0.381,0.941,1.302,1.608,2.378,1.608
				c1.416,0,2.568-1.152,2.568-2.568c0-1.416-1.152-2.568-2.568-2.568c-1.024,0-1.903,0.607-2.315,1.476h-1.235V36.102
				c0-0.974,0.621-1.595,1.595-1.595h9.801c0.974,0,1.595,0.622,1.595,1.595V63.682z M69.783,49.958c0-0.419,0.341-0.76,0.76-0.76
				c0.419,0,0.76,0.341,0.76,0.76c0,0.419-0.341,0.76-0.76,0.76C70.124,50.718,69.783,50.378,69.783,49.958z"/>
		</g>
	</g>
</g>
<g id="nyt_x5F_exporter_x5F_info" style="display:none;">
</g>
</svg>