<!-- Альтернативная иконка с телефоном -->

<!-- <svg version="1.1" id="Layer_1" xmlns="http://www.w3.org/2000/svg" xmlns:xlink="http://www.w3.org/1999/xlink" x="0px" y="0px"
	 viewBox="0 0 295.238 295.238" style="enable-background:new 0 0 295.238 295.238;" xml:space="preserve">
<g>
	<g>
		<g>
			<path d="M105.181,124.01c-31.633,0-57.362,25.733-57.362,57.362c0,4.757,0.648,9.638,1.914,14.51l2.1,8.038l75.89-75.886
				l-8.038-2.1C114.81,124.657,109.933,124.01,105.181,124.01z M57.476,184.81c-0.09-1.152-0.133-2.3-0.133-3.438
				c0-26.376,21.462-47.838,47.838-47.838c1.133,0,2.281,0.043,3.438,0.133L57.476,184.81z"/>
			<path d="M273.643,66.667c-5.767,0-11.195,2.248-15.271,6.329L247.62,83.744V14.286C247.619,6.41,241.21,0,233.333,0H61.905
				c-7.876,0-14.286,6.41-14.286,14.286v79.119C18.971,112.214,0,144.61,0,181.371c0,28.095,10.943,54.51,30.81,74.376l3.367,3.367
				l13.443-13.443v35.281c0,7.876,6.41,14.286,14.286,14.286h171.429c7.876,0,14.286-6.41,14.286-14.286V144.829l41.295-41.295
				c4.074-4.077,6.322-9.496,6.322-15.267C295.238,76.357,285.552,66.667,273.643,66.667z M145.237,209.933l-5.171-5.171
				l98.029-98.029l5.171,5.171L145.237,209.933z M147.234,225.395l-12.867,2.143l2.143-12.867L147.234,225.395z M57.143,14.286
				c0-2.624,2.133-4.762,4.762-4.762h171.429c2.629,0,4.762,2.138,4.762,4.762v23.81H57.143V14.286z M57.143,47.619h180.952v45.648
				l-109.21,109.21l-6.11,36.652l36.652-6.11l78.667-78.667v93.267H57.143v-11.471l125.781-125.781L179.557,107
				c-19.867-19.867-46.281-30.81-74.376-30.81c-17.3,0-33.624,4.224-48.038,11.657V47.619z M34.257,245.562
				c-1.238-1.362-2.347-2.81-3.5-4.229l7.586-5.51l-5.6-7.71l-7.614,5.529c-3.771-5.748-6.943-11.824-9.371-18.21l9.033-2.933
				l-2.938-9.057l-9,2.714c-1.762-6.552-2.771-10.919-3.11-20.443h9.305v-9.524H9.767c0.343-4.762,1.419-13.5,3.176-19.99l8.91,3
				l2.938-9.005l-8.905-2.867c2.462-6.433,5.548-12.538,9.271-18.219l7.59,5.519l5.6-7.7l-7.59-5.514
				c4.295-5.324,9.143-10.167,14.467-14.467l5.514,7.59l7.71-5.6l-5.514-7.59c5.681-3.724,11.795-6.81,18.229-9.267l2.895,8.905
				l9.057-2.943l-3.105-8.91c6.49-1.76,15.228-2.831,19.99-3.174v9.281h9.524v-9.305c9.524,0.338,13.89,1.352,20.438,3.114
				l-2.819,8.995l9.11,2.943l2.962-9.033c6.386,2.429,12.471,5.605,18.219,9.371l-5.524,7.614l7.714,5.6l5.514-7.59
				c1.424,1.148,2.867,2.262,4.233,3.5L34.257,245.562z M142.857,271.428c0-2.629,2.133-4.762,4.762-4.762
				c2.629,0,4.762,2.133,4.762,4.762c0,2.629-2.133,4.762-4.762,4.762C144.99,276.19,142.857,274.057,142.857,271.428z
				 M238.095,280.952c0,2.629-2.133,4.762-4.762,4.762h-85.695c7.867-0.011,14.267-6.416,14.267-14.285
				c0-7.876-6.41-14.286-14.286-14.286s-14.286,6.41-14.286,14.286c0,7.87,6.4,14.274,14.267,14.285H61.905
				c-2.629,0-4.762-2.133-4.762-4.762v-23.81h90.476h90.476V280.952z M157.143,221.838l-5.171-5.171L250,118.638l5.171,5.171
				L157.143,221.838z M261.905,117.076L244.829,100l7.552-7.552l17.076,17.076L261.905,117.076z M282.181,96.805l-5.99,5.986
				l-17.076-17.076l5.99-5.99c2.281-2.276,5.314-3.533,8.538-3.533c6.652,0,12.071,5.419,12.071,12.076
				C285.714,91.49,284.457,94.524,282.181,96.805z"/>
			<rect x="119.048" y="19.048" width="57.143" height="9.524"/>
		</g>
	</g>
</g>
</svg> -->

<!-- Основная иконка для ux/ui desing -->
<svg version="1.1" id="Layer_1" xmlns="http://www.w3.org/2000/svg" xmlns:xlink="http://www.w3.org/1999/xlink" x="0px" y="0px"
	 viewBox="0 0 295.239 295.239" style="enable-background:new 0 0 295.239 295.239;" xml:space="preserve">
<g>
	<g>
		<g>
			<circle cx="38.096" cy="90.476" r="4.762"/>
			<circle cx="57.144" cy="90.476" r="4.762"/>
			<circle cx="76.191" cy="90.476" r="4.762"/>
			<path d="M33.334,261.905h61.29l-61.29-57.686V261.905z M42.858,226.262l27.752,26.119H42.858V226.262z"/>
			<path d="M295.239,28.571V0.001h-28.571v9.524H171.43V0.001h-28.571v28.571h28.571v-9.524h16.1
				c-15.424,10.243-25.624,27.757-25.624,47.619H28.572c-7.876,0-14.286,6.41-14.286,14.286V140.6
				c-4.338-3.657-7.976-2.767-9.376-2.162C3.434,139.076,0,141.248,0,147.62v133.333c0,7.876,6.41,14.286,14.286,14.286h142.857
				c6.233,0,8.386-3.086,9.119-4.924c0.729-1.843,1.276-5.562-3.267-9.833l-4.557-4.29h122.514c7.876,0,14.286-6.41,14.286-14.286
				V80.953c0-7.876-6.41-14.286-14.286-14.286h-4.762c0-19.862-10.2-37.376-25.624-47.619h16.1v9.524H295.239z M276.191,9.524h9.524
				v9.524h-9.524V9.524z M161.906,19.048h-9.524V9.524h9.524V19.048z M23.811,80.951c0-2.622,2.138-4.761,4.761-4.761H162.72
				c0.005,0.038,0.057,0.048,0.086,0.071c1.814,10.719,6.629,20.538,13.805,28.5h-152.8V80.951z M14.287,285.714L14.287,285.714
				c-2.624,0.001-4.762-2.132-4.762-4.761v-4.762h9.524v-9.524H9.525v-9.524h9.524v-9.524H9.525v-9.524h9.524v-9.524H9.525v-9.524
				h9.524v-9.524H9.525v-9.522h9.524v-9.524H9.525v-9.524h9.524v-9.524H9.525v-22.314l49.819,46.89l14.367,13.519l80.952,76.19
				H14.287z M42.858,167.41v-34.076H147.62v66.666H77.487L42.858,167.41z M285.714,261.91c0.001,2.623-2.137,4.757-4.761,4.757
				H148.32l-60.714-57.143h69.538v-85.714H33.334v34.633l-9.524-8.962v-35.195h163.933c0.919,0.6,1.776,1.271,2.733,1.824v5.376
				c-2.871,2.176-4.762,5.59-4.762,9.462c0,2.69,0.929,5.148,2.443,7.143c-1.514,2-2.443,4.457-2.443,7.148
				c0,6.562,5.343,11.905,11.905,11.905h42.857c6.562,0,11.905-5.343,11.905-11.905c0-2.69-0.929-5.148-2.443-7.143
				c1.514-1.995,2.443-4.452,2.443-7.143c0-3.871-1.89-7.286-4.762-9.462v-5.376c0.957-0.552,1.814-1.224,2.733-1.824h35.362V261.91
				z M197.62,142.857h42.857c1.314,0,2.381,1.067,2.381,2.381c0,1.314-1.067,2.381-2.381,2.381H197.62
				c-1.314,0-2.381-1.067-2.381-2.381C195.239,143.925,196.306,142.857,197.62,142.857z M195.239,130.952
				c0-1.314,1.067-2.381,2.381-2.381h42.857c1.314,0,2.381,1.067,2.381,2.381c0,1.314-1.067,2.381-2.381,2.381H197.62
				C196.306,133.334,195.239,132.266,195.239,130.952z M275.377,76.191h5.576c2.624,0,4.762,2.138,4.762,4.762v23.81h-24.233
				c7.029-7.795,11.776-17.376,13.676-27.838C275.244,76.706,275.33,76.477,275.377,76.191z M266.668,66.667
				c0,17.938-9.952,34.176-25.981,42.376l-2.59,1.329v8.676h-14.286v-34.01c8.19-2.129,14.286-9.524,14.286-18.371
				c0-10.505-8.543-19.048-19.048-19.048s-19.048,8.543-19.048,19.048c0,8.848,6.095,16.243,14.286,18.371v34.01h-14.286v-8.676
				l-2.59-1.329c-16.029-8.2-25.981-24.438-25.981-42.376c0-26.257,21.362-47.619,47.619-47.619
				C245.306,19.048,266.668,40.41,266.668,66.667z M219.049,76.191c-5.252,0-9.524-4.271-9.524-9.524
				c0-5.252,4.271-9.524,9.524-9.524c5.253,0,9.524,4.271,9.524,9.524C228.572,71.92,224.301,76.191,219.049,76.191z"/>
			<rect x="166.668" y="171.43" width="109.524" height="9.524"/>
			<rect x="166.668" y="190.477" width="109.524" height="9.524"/>
			<rect x="166.668" y="209.524" width="109.524" height="9.524"/>
			<rect x="166.668" y="228.571" width="109.524" height="9.524"/>
		</g>
	</g>
</g>
</svg>