<!-- <svg version="1.1" id="Capa_1" xmlns="http://www.w3.org/2000/svg" xmlns:xlink="http://www.w3.org/1999/xlink" x="0px" y="0px"
	 viewBox="0 0 512.001 512.001" style="enable-background:new 0 0 512.001 512.001;" xml:space="preserve">
<g>
	<g>
		<path d="M345.415,107.168l-48.764-67.723c-1.879-2.61-4.899-4.157-8.115-4.157s-6.236,1.547-8.115,4.157l-48.764,67.723
			c-1.226,1.702-1.885,3.746-1.885,5.843v1.597v324.514c0,20.634,16.787,37.421,37.421,37.421h42.685
			c20.635,0,37.422-16.787,37.422-37.421V114.608v-1.597C347.3,110.914,346.641,108.869,345.415,107.168z M288.536,62.402
			l30.391,42.206h-60.781L288.536,62.402z M249.772,124.608h47.48v259.016h-17.435v-191.01c0.001-5.524-4.476-10.001-9.999-10.001
			c-5.522,0-10,4.477-10,10v191.01h-10.046V124.608z M327.3,439.121c0,9.606-7.815,17.421-17.422,17.421h-42.685
			c-9.605,0-17.421-7.815-17.421-17.421v-35.498H327.3V439.121z M327.3,383.624h-10.047V124.608H327.3V383.624z"/>
	</g>
</g>
<g>
	<g>
		<path d="M279.62,150.5c-0.13-0.63-0.32-1.26-0.57-1.87c-0.25-0.6-0.56-1.18-0.92-1.72c-0.36-0.55-0.78-1.06-1.24-1.52
			c-0.46-0.46-0.97-0.88-1.52-1.25c-0.54-0.36-1.12-0.66-1.73-0.91c-0.6-0.25-1.229-0.45-1.87-0.58c-1.29-0.25-2.62-0.25-3.91,0
			c-0.63,0.13-1.26,0.33-1.869,0.58c-0.601,0.25-1.181,0.55-1.721,0.91c-0.55,0.37-1.06,0.79-1.52,1.25
			c-0.46,0.46-0.88,0.97-1.25,1.52c-0.36,0.54-0.67,1.12-0.92,1.72c-0.25,0.61-0.44,1.24-0.57,1.87c-0.13,0.65-0.19,1.31-0.19,1.96
			c0,2.63,1.07,5.21,2.931,7.07c1.859,1.86,4.439,2.93,7.069,2.93c0.65,0,1.311-0.07,1.95-0.2c0.641-0.13,1.271-0.32,1.87-0.57
			c0.61-0.25,1.19-0.56,1.73-0.92c0.55-0.36,1.06-0.78,1.52-1.24c0.46-0.46,0.88-0.97,1.24-1.52c0.36-0.54,0.67-1.12,0.92-1.73
			c0.25-0.6,0.44-1.23,0.57-1.87c0.13-0.64,0.199-1.3,0.199-1.95C279.819,151.81,279.75,151.15,279.62,150.5z"/>
	</g>
</g>
<g>
	<g>
		<path d="M97.265,222.573l-0.003-1.524c0.001-7.881,6.413-14.293,14.294-14.293c0.141,0,0.282-0.003,0.423-0.009l30.46-1.289
			c17.787-0.125,32.22-14.634,32.22-32.451c0-17.894-14.558-32.451-32.451-32.451H74.151c-6.865,0-12.451-5.586-12.451-12.452
			c0-3.322,1.31-6.441,3.688-8.782c2.281-2.247,5.263-3.477,8.413-3.477c0.116,0,0.234,0.003,0.35,0.003l59.547-0.002
			c22.21,0,40.278-18.07,40.278-40.28c0-22.21-18.069-40.279-40.279-40.279H65.959c-5.522,0-10,4.477-10,10s4.478,10,10,10h67.738
			c11.182,0,20.279,9.097,20.279,20.279s-9.097,20.279-20.278,20.28l-59.476,0.002c-8.566-0.118-16.708,3.159-22.864,9.22
			C45.13,111.2,41.7,119.38,41.7,128.105c0,17.894,14.558,32.452,32.451,32.452h68.056c6.865,0,12.451,5.585,12.451,12.451
			c0,6.866-5.586,12.452-12.451,12.452c-0.141,0-0.282,0.003-0.423,0.009l-30.457,1.289c-18.805,0.123-34.064,15.459-34.064,34.312
			l0.003,1.509C33.839,227.564,0,264.543,0,309.284v80.144c0,48.129,39.156,87.285,87.285,87.285
			c48.129,0,87.285-39.156,87.285-87.285v-80.144C174.57,264.53,140.711,227.541,97.265,222.573z M20,309.284
			c0-33.705,24.908-61.7,57.285-66.544v81.562H20V309.284z M154.57,389.428c0,37.101-30.184,67.285-67.285,67.285
			C50.184,456.713,20,426.529,20,389.428v-45.125h134.57V389.428z M154.57,324.302H97.285V242.74
			c32.377,4.844,57.285,32.839,57.285,66.544V324.302z"/>
	</g>
</g>
<g>
	<g>
		<path d="M37.259,43.33c-0.13-0.63-0.32-1.26-0.57-1.87c-0.25-0.6-0.56-1.18-0.92-1.72c-0.359-0.55-0.779-1.06-1.239-1.52
			c-1.86-1.86-4.44-2.93-7.07-2.93s-5.21,1.07-7.07,2.93c-0.46,0.46-0.88,0.97-1.24,1.52c-0.369,0.54-0.67,1.12-0.92,1.72
			c-0.26,0.61-0.449,1.24-0.58,1.87c-0.13,0.65-0.189,1.31-0.189,1.96c0,0.65,0.06,1.31,0.189,1.95c0.13,0.64,0.32,1.27,0.579,1.87
			c0.25,0.61,0.551,1.19,0.92,1.73c0.36,0.55,0.78,1.06,1.24,1.52c0.46,0.46,0.97,0.88,1.521,1.24c0.54,0.36,1.12,0.67,1.72,0.92
			c0.61,0.25,1.24,0.44,1.88,0.57c0.64,0.13,1.3,0.2,1.95,0.2c2.63,0,5.21-1.07,7.07-2.93c0.46-0.46,0.88-0.97,1.239-1.52
			c0.36-0.54,0.67-1.12,0.92-1.73c0.25-0.6,0.44-1.23,0.57-1.87s0.2-1.3,0.2-1.95C37.459,44.64,37.389,43.98,37.259,43.33z"/>
	</g>
</g>
<g>
	<g>
		<path d="M511.925,135.068c-1.105-23.597-12.992-35.276-22.544-44.66c-10.334-10.154-16.572-16.283-10.682-36.37
			c2.667-9.094-1.006-13.869-3.434-15.906c-3.021-2.534-8.412-4.668-16.952-0.441c-11.065,5.478-27.86,21.583-40.842,39.162
			c-11.919,16.141-25.896,40.311-24.796,63.799c0.823,17.564,8.27,33.669,20.427,44.997c-6.008,8.108-9.569,18.133-9.569,28.976
			c0,6.879,1.402,13.436,3.952,19.388v195.423c0,23.785,19.351,43.135,43.135,43.135s43.135-19.35,43.135-43.135V240.471
			c4.662-7.509,7.325-16.371,7.325-25.846c0.001-10.713-3.479-20.623-9.356-28.678C505.285,173.36,512.848,154.791,511.925,135.068z
			 M473.755,429.435c0.001,12.757-10.377,23.135-23.134,23.135c-12.757,0-23.135-10.378-23.135-23.135V256.676
			c5.193,3.042,11.032,5.174,17.333,6.147c0.505,0.078,1.015,0.117,1.525,0.117h11.926c0.511,0,1.021-0.039,1.525-0.117
			c0.659-0.102,1.315-0.22,1.968-0.349c0.417-0.081,0.828-0.175,1.241-0.266c0.178-0.04,0.357-0.078,0.535-0.12
			c3.59-0.838,7.008-2.057,10.216-3.61V429.435z M465.824,240.009c-0.043,0.021-0.084,0.043-0.125,0.065
			c-0.288,0.153-0.579,0.299-0.873,0.443c-0.139,0.068-0.279,0.134-0.42,0.2c-0.224,0.105-0.449,0.207-0.675,0.306
			c-0.213,0.093-0.428,0.182-0.643,0.27c-0.175,0.071-0.349,0.143-0.525,0.211c-0.267,0.103-0.537,0.199-0.807,0.294
			c-0.14,0.049-0.279,0.1-0.42,0.147c-0.305,0.101-0.612,0.195-0.92,0.286c-0.117,0.035-0.233,0.072-0.351,0.106
			c-0.336,0.095-0.675,0.18-1.015,0.262c-0.096,0.023-0.19,0.05-0.286,0.072c-0.437,0.101-0.876,0.192-1.318,0.272h-10.273
			c-0.01-0.002-0.02-0.004-0.03-0.006c-0.483-0.087-0.96-0.191-1.435-0.303c-0.19-0.045-0.378-0.094-0.567-0.143
			c-0.283-0.073-0.565-0.15-0.845-0.232c-0.236-0.069-0.473-0.137-0.707-0.212c-0.177-0.056-0.352-0.119-0.528-0.179
			c-11.41-3.904-19.525-14.855-19.525-27.242c0-9.274,4.415-17.532,11.248-22.798c0.263-0.203,0.53-0.4,0.799-0.593
			c0.46-0.33,0.93-0.647,1.41-0.95c0.21-0.133,0.421-0.265,0.634-0.392c0.663-0.395,1.342-0.765,2.038-1.107
			c0.068-0.034,0.136-0.07,0.204-0.103c0.403-0.194,0.812-0.379,1.225-0.555c0.068-0.029,0.137-0.054,0.205-0.082
			c0.718-0.299,1.451-0.567,2.197-0.808c0.231-0.074,0.462-0.144,0.695-0.212c0.505-0.149,1.016-0.283,1.533-0.405
			c0.394-0.092,0.79-0.179,1.189-0.254c0.271-0.052,0.542-0.102,0.815-0.146c0.626-0.099,1.257-0.181,1.894-0.239
			c0.172-0.016,0.346-0.027,0.519-0.04c0.719-0.053,1.441-0.09,2.17-0.09c0.74,0,1.471,0.039,2.199,0.093
			c0.172,0.013,0.345,0.023,0.516,0.039c0.638,0.059,1.27,0.143,1.897,0.243c0.283,0.046,0.564,0.097,0.845,0.151
			c0.402,0.076,0.801,0.166,1.198,0.26c0.522,0.124,1.039,0.261,1.549,0.413c0.212,0.063,0.424,0.129,0.635,0.197
			c0.717,0.232,1.422,0.491,2.113,0.776c0.102,0.042,0.205,0.082,0.306,0.125c1.212,0.517,2.38,1.117,3.5,1.789
			c0.248,0.149,0.492,0.305,0.736,0.462c0.452,0.29,0.895,0.591,1.329,0.905c0.303,0.22,0.603,0.446,0.899,0.679
			c6.72,5.272,11.05,13.458,11.05,22.642C481.083,225.406,474.939,235.102,465.824,240.009z M476.815,172.457
			c-0.217-0.126-0.444-0.233-0.662-0.356c-0.522-0.294-1.052-0.577-1.586-0.852c-0.273-0.14-0.544-0.285-0.82-0.42
			c-1.781-0.875-3.624-1.639-5.518-2.295c-0.105-0.036-0.209-0.071-0.314-0.107c-0.948-0.321-1.908-0.618-2.881-0.881
			c-0.004-0.001-0.008-0.002-0.013-0.004c-1.971-0.533-3.99-0.942-6.051-1.225c-0.188-0.026-0.377-0.048-0.565-0.072
			c-0.796-0.1-1.597-0.18-2.404-0.24c-0.241-0.018-0.481-0.04-0.722-0.055c-0.984-0.059-1.973-0.099-2.971-0.099
			c-0.988,0-1.967,0.039-2.941,0.097c-0.233,0.014-0.465,0.036-0.698,0.053c-0.799,0.059-1.593,0.137-2.381,0.235
			c-0.185,0.023-0.369,0.045-0.554,0.071c-3.052,0.413-6.014,1.11-8.862,2.063c-0.081,0.027-0.161,0.054-0.241,0.082
			c-0.902,0.307-1.794,0.637-2.672,0.995c-0.073,0.03-0.147,0.057-0.22,0.087c-0.916,0.379-1.82,0.78-2.708,1.212
			c-0.193,0.094-0.381,0.198-0.573,0.294c-0.607,0.305-1.208,0.62-1.8,0.95c-0.173,0.096-0.353,0.179-0.525,0.277
			c-9.196-7.825-14.872-19.585-15.479-32.55c-0.672-14.336,7.732-33.957,23.056-53.832c7.681-9.962,15.081-17.483,20.938-22.594
			c-1.659,21.363,9.464,32.292,18.717,41.383c8.502,8.353,15.844,15.566,16.582,31.329
			C492.622,150.413,486.927,163.855,476.815,172.457z"/>
	</g>
</g>
</svg> -->

<svg version="1.1" id="Capa_1" xmlns="http://www.w3.org/2000/svg" xmlns:xlink="http://www.w3.org/1999/xlink" x="0px" y="0px"
	 viewBox="0 0 512.001 512.001" style="enable-background:new 0 0 512.001 512.001;" xml:space="preserve">
<polygon style="fill:#0088BB;" points="337.299,113.011 288.536,45.288 239.772,113.011 239.772,114.608 337.299,114.608 "/>
<rect x="239.77" y="114.61" style="fill:#FFDD73;" width="97.53" height="279.02"/>
<path style="fill:#F27187;" d="M239.772,393.623v45.498c0,15.144,12.277,27.421,27.421,27.421h42.685
	c15.144,0,27.421-12.277,27.421-27.421v-45.498H239.772z"/>
<path d="M269.819,162.46c-2.63,0-5.21-1.07-7.069-2.93c-1.86-1.86-2.931-4.44-2.931-7.07c0-0.65,0.061-1.31,0.19-1.96
	c0.13-0.63,0.32-1.26,0.57-1.87c0.25-0.6,0.56-1.18,0.92-1.72c0.37-0.55,0.79-1.06,1.25-1.52s0.97-0.88,1.52-1.25
	c0.54-0.36,1.12-0.66,1.721-0.91c0.609-0.25,1.239-0.45,1.869-0.58c1.29-0.25,2.62-0.25,3.91,0c0.641,0.13,1.271,0.33,1.87,0.58
	c0.61,0.25,1.19,0.55,1.73,0.91c0.55,0.37,1.06,0.79,1.52,1.25s0.88,0.97,1.24,1.52c0.36,0.54,0.67,1.12,0.92,1.72
	c0.25,0.61,0.44,1.24,0.57,1.87c0.13,0.65,0.199,1.31,0.199,1.96s-0.069,1.31-0.199,1.95s-0.32,1.27-0.57,1.87
	c-0.25,0.61-0.56,1.19-0.92,1.73c-0.36,0.55-0.78,1.06-1.24,1.52s-0.97,0.88-1.52,1.24c-0.54,0.36-1.12,0.67-1.73,0.92
	c-0.6,0.25-1.229,0.44-1.87,0.57C271.13,162.39,270.47,162.46,269.819,162.46z"/>
<path d="M345.415,107.168l-48.764-67.723c-1.879-2.61-4.899-4.157-8.115-4.157s-6.236,1.547-8.115,4.157l-48.764,67.723
	c-1.226,1.702-1.885,3.746-1.885,5.843v1.597v324.514l0,0c0,20.634,16.787,37.421,37.421,37.421h42.685
	c20.635,0,37.422-16.787,37.422-37.421l0,0V114.608v-1.597C347.3,110.914,346.641,108.869,345.415,107.168z M269.818,182.613
	c-5.522,0-10,4.477-10,10v191.01h-10.046V124.608h47.48v259.016h-17.435v-191.01C279.818,187.09,275.341,182.613,269.818,182.613z
	 M317.253,124.608H327.3v259.016h-10.047V124.608z M288.536,62.402l30.391,42.206h-60.781L288.536,62.402z M327.3,439.121
	c0,9.606-7.815,17.421-17.422,17.421h-42.685c-9.605,0-17.421-7.815-17.421-17.421v-35.498H327.3V439.121z"/>
<path style="fill:#B3B3B3;" d="M164.57,309.284c0-42.507-34.778-77.285-77.285-77.285v102.303h77.285V309.284z"/>
<path style="fill:#E3E3E3;" d="M10,309.284v25.018h77.285V231.999C44.778,231.999,10,266.777,10,309.284z"/>
<path style="fill:#5E6E82;" d="M164.57,389.428v-55.126H10v55.126c0,42.683,34.602,77.285,77.285,77.285l0,0
	C129.969,466.713,164.57,432.111,164.57,389.428z"/>
<path d="M97.266,222.573l-0.003-1.524c0-7.881,6.412-14.293,14.293-14.293c0.141,0,0.282-0.003,0.423-0.009l30.46-1.289
	c17.787-0.125,32.22-14.634,32.22-32.451c0-17.894-14.558-32.451-32.451-32.451H74.151c-6.865,0-12.451-5.586-12.451-12.452
	c0-3.322,1.31-6.441,3.688-8.782c2.281-2.247,5.263-3.477,8.413-3.477c0.116,0,0.234,0.003,0.35,0.003l59.547-0.002
	c22.21,0,40.278-18.07,40.278-40.28s-18.069-40.279-40.279-40.279H65.959c-5.522,0-10,4.477-10,10s4.478,10,10,10h67.738
	c11.182,0,20.279,9.097,20.279,20.279s-9.097,20.279-20.278,20.28l-59.476,0.002c-8.566-0.118-16.708,3.159-22.864,9.22
	C45.13,111.2,41.7,119.38,41.7,128.105c0,17.894,14.558,32.452,32.451,32.452h68.056c6.865,0,12.451,5.585,12.451,12.451
	s-5.586,12.452-12.451,12.452c-0.141,0-0.282,0.003-0.423,0.009l-30.457,1.289c-18.805,0.123-34.064,15.459-34.064,34.312
	l0.003,1.509C33.839,227.564,0,264.543,0,309.284l0,0v80.144c0,48.129,39.156,87.285,87.285,87.285s87.285-39.156,87.285-87.285
	v-80.144l0,0C174.57,264.53,140.711,227.542,97.266,222.573z M20,309.284c0-33.705,24.908-61.7,57.285-66.544v81.562H20V309.284z
	 M154.57,389.428c0,37.101-30.184,67.285-67.285,67.285S20,426.529,20,389.428v-45.125h134.57l0,0V389.428z M154.57,324.302H97.285
	V242.74c32.377,4.844,57.285,32.839,57.285,66.544V324.302z"/>
<path d="M27.46,55.29c-0.65,0-1.311-0.07-1.95-0.2s-1.27-0.32-1.88-0.57c-0.6-0.25-1.18-0.56-1.72-0.92
	c-0.551-0.36-1.061-0.78-1.521-1.24s-0.88-0.97-1.24-1.52c-0.369-0.54-0.67-1.12-0.92-1.73c-0.26-0.6-0.449-1.23-0.58-1.87
	c-0.13-0.64-0.189-1.3-0.189-1.95s0.06-1.31,0.189-1.96c0.131-0.63,0.32-1.26,0.58-1.87c0.25-0.6,0.551-1.18,0.92-1.72
	c0.36-0.55,0.78-1.06,1.24-1.52c1.86-1.86,4.44-2.93,7.07-2.93s5.21,1.07,7.07,2.93c0.46,0.46,0.88,0.97,1.239,1.52
	c0.36,0.54,0.67,1.12,0.92,1.72c0.25,0.61,0.44,1.24,0.57,1.87c0.13,0.65,0.2,1.31,0.2,1.96c0,0.65-0.07,1.31-0.2,1.95
	s-0.32,1.27-0.57,1.87c-0.25,0.61-0.56,1.19-0.92,1.73c-0.359,0.55-0.779,1.06-1.239,1.52C32.67,54.22,30.09,55.29,27.46,55.29z"/>
<path style="fill:#F27187;" d="M452.308,175.851c9.352,0,17.93,3.312,24.627,8.825c15.745-9.603,25.98-28.227,25.001-49.14
	c-2.037-43.497-46.669-37.128-32.831-84.312c7.723-26.333-68.701,40.659-66.439,88.96c0.895,19.103,10.921,35.424,25.281,44.275
	C434.603,179.076,443.08,175.851,452.308,175.851z"/>
<path style="fill:#E3E3E3;" d="M458.271,252.941c18.583-2.869,32.811-18.93,32.811-38.316c0-21.414-17.359-38.774-38.773-38.774
	s-38.773,17.36-38.773,38.773c0,19.386,14.228,35.448,32.81,38.316L458.271,252.941L458.271,252.941z"/>
<path style="fill:#5E6E82;" d="M458.271,252.941h-11.926c-12.696-1.96-23.354-10.08-28.836-21.208h-0.022v197.703
	c0,18.3,14.835,33.135,33.135,33.135l0,0c18.3,0,33.135-14.835,33.135-33.135V237.309
	C477.816,245.527,468.734,251.326,458.271,252.941z"/>
<path d="M491.724,185.947c13.561-12.587,21.124-31.156,20.201-50.879c-1.105-23.597-12.992-35.276-22.544-44.66
	c-10.334-10.154-16.572-16.283-10.682-36.37c2.667-9.094-1.006-13.869-3.434-15.906c-3.021-2.534-8.412-4.668-16.952-0.441
	c-11.065,5.478-27.86,21.583-40.842,39.162c-11.919,16.141-25.896,40.311-24.796,63.799c0.823,17.564,8.27,33.669,20.427,44.997
	c-6.008,8.108-9.569,18.133-9.569,28.976c0,6.879,1.402,13.436,3.952,19.388v195.423c0,23.785,19.351,43.135,43.135,43.135
	s43.135-19.35,43.135-43.135V240.471c4.662-7.509,7.325-16.371,7.325-25.846C501.081,203.912,497.601,194.002,491.724,185.947z
	 M465.699,240.074c-0.288,0.153-0.579,0.299-0.873,0.443c-0.139,0.068-0.279,0.134-0.42,0.2c-0.224,0.105-0.449,0.207-0.675,0.306
	c-0.213,0.093-0.428,0.182-0.643,0.27c-0.175,0.071-0.349,0.143-0.525,0.211c-0.267,0.103-0.537,0.199-0.807,0.294
	c-0.14,0.049-0.279,0.1-0.42,0.147c-0.305,0.101-0.612,0.195-0.92,0.286c-0.117,0.035-0.233,0.072-0.351,0.106
	c-0.336,0.095-0.675,0.18-1.015,0.262c-0.096,0.023-0.19,0.05-0.286,0.072c-0.437,0.101-0.876,0.192-1.318,0.272h-10.273
	c-0.01-0.002-0.02-0.004-0.03-0.006c-0.483-0.087-0.96-0.191-1.435-0.303c-0.19-0.045-0.378-0.094-0.567-0.143
	c-0.283-0.073-0.565-0.15-0.845-0.232c-0.236-0.069-0.473-0.137-0.707-0.212c-0.177-0.056-0.352-0.119-0.528-0.179
	c-11.41-3.904-19.525-14.855-19.525-27.242c0-9.274,4.415-17.532,11.248-22.798c0.263-0.203,0.53-0.4,0.799-0.593
	c0.46-0.33,0.93-0.647,1.41-0.95c0.21-0.133,0.421-0.265,0.634-0.392c0.663-0.395,1.342-0.765,2.038-1.107
	c0.068-0.034,0.136-0.07,0.204-0.103c0.403-0.194,0.812-0.379,1.225-0.555c0.068-0.029,0.137-0.054,0.205-0.082
	c0.718-0.299,1.451-0.567,2.197-0.808c0.231-0.074,0.462-0.144,0.695-0.212c0.505-0.149,1.016-0.283,1.533-0.405
	c0.394-0.092,0.79-0.179,1.189-0.254c0.271-0.052,0.542-0.102,0.815-0.146c0.626-0.099,1.257-0.181,1.894-0.239
	c0.172-0.016,0.346-0.027,0.519-0.04c0.719-0.053,1.441-0.09,2.17-0.09c0.74,0,1.471,0.039,2.199,0.093
	c0.172,0.013,0.345,0.023,0.516,0.039c0.638,0.059,1.27,0.143,1.897,0.243c0.283,0.046,0.564,0.097,0.845,0.151
	c0.402,0.076,0.801,0.166,1.198,0.26c0.522,0.124,1.039,0.261,1.549,0.413c0.212,0.063,0.424,0.129,0.635,0.197
	c0.717,0.232,1.422,0.491,2.113,0.776c0.102,0.042,0.205,0.082,0.306,0.125c1.212,0.517,2.38,1.117,3.5,1.789
	c0.248,0.149,0.492,0.305,0.736,0.462c0.452,0.29,0.895,0.591,1.329,0.905c0.303,0.22,0.603,0.446,0.899,0.679
	c6.72,5.272,11.05,13.458,11.05,22.642c0,10.78-6.144,20.476-15.259,25.383C465.781,240.03,465.74,240.052,465.699,240.074z
	 M435.71,85.885c7.681-9.962,15.081-17.483,20.938-22.594c-1.659,21.363,9.464,32.292,18.717,41.383
	c8.502,8.353,15.844,15.566,16.582,31.329c0.675,14.41-5.02,27.852-15.132,36.454c-0.217-0.126-0.444-0.233-0.662-0.356
	c-0.522-0.294-1.052-0.577-1.586-0.852c-0.273-0.14-0.544-0.285-0.82-0.42c-1.781-0.875-3.624-1.639-5.518-2.295
	c-0.105-0.036-0.209-0.071-0.314-0.107c-0.948-0.321-1.908-0.618-2.881-0.881c-0.004-0.001-0.008-0.002-0.013-0.004
	c-1.971-0.533-3.99-0.942-6.051-1.225c-0.188-0.026-0.377-0.048-0.565-0.072c-0.796-0.1-1.597-0.18-2.404-0.24
	c-0.241-0.018-0.481-0.04-0.722-0.055c-0.984-0.059-1.973-0.099-2.971-0.099c-0.988,0-1.967,0.039-2.941,0.097
	c-0.233,0.014-0.465,0.036-0.698,0.053c-0.799,0.059-1.593,0.137-2.381,0.235c-0.185,0.023-0.369,0.045-0.554,0.071
	c-3.052,0.413-6.014,1.11-8.862,2.063c-0.081,0.027-0.161,0.054-0.241,0.082c-0.902,0.307-1.794,0.637-2.672,0.995
	c-0.073,0.03-0.147,0.057-0.22,0.087c-0.916,0.379-1.82,0.78-2.708,1.212c-0.193,0.094-0.381,0.198-0.573,0.294
	c-0.607,0.305-1.208,0.62-1.8,0.95c-0.173,0.096-0.353,0.179-0.525,0.277c-9.196-7.825-14.872-19.585-15.479-32.55
	C411.982,125.381,420.386,105.76,435.71,85.885z M450.621,452.57c-12.757,0-23.135-10.378-23.135-23.135V256.676
	c5.193,3.042,11.032,5.174,17.333,6.147c0.505,0.078,1.015,0.117,1.525,0.117h11.926c0.511,0,1.021-0.039,1.525-0.117
	c0.659-0.102,1.315-0.22,1.968-0.349c0.417-0.081,0.828-0.175,1.241-0.266c0.178-0.04,0.357-0.078,0.535-0.12
	c3.59-0.838,7.008-2.057,10.216-3.61v170.957C473.756,442.192,463.378,452.57,450.621,452.57z"/>
</svg>

