<?xml version="1.0" encoding="iso-8859-1"?>
<svg version="1.1" id="Capa_1" xmlns="http://www.w3.org/2000/svg" xmlns:xlink="http://www.w3.org/1999/xlink" x="0px" y="0px"
	 viewBox="0 0 512 512" style="enable-background:new 0 0 512 512;" xml:space="preserve">
<g>
	<g>
		<path d="M497,90c8.284,0,15-6.716,15-15V15c0-8.284-6.716-15-15-15h-60c-8.284,0-15,6.716-15,15v15H90V15c0-8.284-6.716-15-15-15
			H15C6.716,0,0,6.716,0,15v60c0,8.284,6.716,15,15,15h15v332H15c-8.284,0-15,6.716-15,15v60c0,8.284,6.716,15,15,15h60
			c8.284,0,15-6.716,15-15v-15h332v15c0,8.284,6.716,15,15,15h60c8.284,0,15-6.716,15-15v-60c0-8.284-6.716-15-15-15h-15V90H497z
			 M30,30h30v30H30V30z M60,482H30v-30h30V482z M422,437v15H90v-15c0-8.284-6.716-15-15-15H60V90h15c8.284,0,15-6.716,15-15V60h332
			v15c0,8.284,6.716,15,15,15h15v332h-15C428.716,422,422,428.716,422,437z M482,482h-30v-30h30V482z M452,60V30h30v30H452z"/>
	</g>
</g>
<g>
	<g>
		<path d="M376,90H136c-8.284,0-15,6.716-15,15v90c0,6.067,3.655,11.536,9.26,13.858c5.605,2.322,12.057,1.038,16.347-3.251
			L172.213,180H211v190.787l-25.606,25.606C175.986,405.801,182.645,422,196,422h120c13.304,0,20.05-16.164,10.606-25.607
			L301,370.787V180h38.787l25.607,25.607C374.8,215.013,391,208.355,391,195v-90C391,96.716,384.284,90,376,90z M361.001,158.787
			L361.001,158.787C356.541,154.328,353.236,150,346,150h-60c-8.284,0-15,6.716-15,15v212c0,7.222,4.308,10.521,8.787,15h-47.573
			c4.457-4.457,8.787-7.764,8.787-15V165c0-8.284-6.716-15-15-15h-60c-7.242,0-10.553,4.34-15,8.787V120h210V158.787z"/>
	</g>
</g>
</svg>
