<svg width="31" height="30" viewBox="0 0 31 30" version="1.1" xmlns="http://www.w3.org/2000/svg" xmlns:xlink="http://www.w3.org/1999/xlink">
<g id="Canvas" fill="none">
<g id="github-seeklogo.com">
<g id="Group">
<g id="Vector">
<path d="M 15.4617 0C 6.92354 0 0 6.88559 0 15.3798C 0 22.1749 4.43024 27.9399 10.5736 29.9736C 11.3464 30.1159 11.63 29.6399 11.63 29.2337C 11.63 28.867 11.6157 27.6554 11.6091 26.3703C 7.3076 27.3007 6.39994 24.5557 6.39994 24.5557C 5.69661 22.778 4.6832 22.3053 4.6832 22.3053C 3.28037 21.3508 4.78895 21.3704 4.78895 21.3704C 6.34157 21.4789 7.1591 22.9553 7.1591 22.9553C 8.53812 25.3065 10.7762 24.6268 11.6585 24.2338C 11.7972 23.2398 12.1979 22.5613 12.6401 22.1772C 9.20587 21.7883 5.59573 20.4696 5.59573 14.5765C 5.59573 12.8974 6.19972 11.5254 7.1888 10.4483C 7.02826 10.061 6.49903 8.49671 7.33858 6.37826C 7.33858 6.37826 8.63695 5.96492 11.5916 7.95475C 12.825 7.61398 14.1477 7.44309 15.4617 7.43723C 16.7757 7.44309 18.0994 7.61398 19.335 7.95475C 22.2861 5.96492 23.5827 6.37826 23.5827 6.37826C 24.4243 8.49671 23.8948 10.061 23.7343 10.4483C 24.7257 11.5254 25.3256 12.8974 25.3256 14.5765C 25.3256 20.4836 21.7085 21.7843 18.2655 22.165C 18.8201 22.6423 19.3143 23.5782 19.3143 25.0131C 19.3143 27.071 19.2964 28.7272 19.2964 29.2337C 19.2964 29.643 19.5747 30.1226 20.3584 29.9715C 26.4985 27.9356 30.9231 22.1726 30.9231 15.3798C 30.9231 6.88559 24.0006 0 15.4617 0ZM 5.7909 21.9088C 5.75684 21.9852 5.63599 22.0081 5.5259 21.9557C 5.41375 21.9055 5.35077 21.8013 5.38712 21.7247C 5.42041 21.646 5.54152 21.6241 5.6534 21.6768C 5.76581 21.7269 5.82981 21.8321 5.7909 21.9088ZM 6.55144 22.5838C 6.4777 22.6518 6.33355 22.6202 6.23574 22.5128C 6.13461 22.4055 6.11566 22.2622 6.19042 22.1931C 6.26647 22.1251 6.40626 22.157 6.50766 22.2642C 6.60879 22.3727 6.62851 22.5151 6.55144 22.5838ZM 7.0732 23.4475C 6.97847 23.5129 6.82356 23.4516 6.7278 23.3148C 6.63307 23.178 6.63307 23.014 6.72985 22.9483C 6.82587 22.8826 6.97847 22.9417 7.0755 23.0774C 7.16998 23.2165 7.16998 23.3805 7.0732 23.4475ZM 7.95561 24.4477C 7.87086 24.5407 7.69035 24.5157 7.55824 24.3889C 7.42305 24.2649 7.38541 24.0889 7.47042 23.9959C 7.55619 23.9027 7.73772 23.929 7.87086 24.0548C 8.00502 24.1785 8.04599 24.3558 7.95561 24.4477ZM 9.09604 24.7854C 9.05866 24.9059 8.88481 24.9606 8.70967 24.9095C 8.5348 24.8567 8.42035 24.7156 8.45568 24.5939C 8.49204 24.4727 8.66666 24.4156 8.84307 24.4704C 9.01769 24.5228 9.13239 24.6629 9.09604 24.7854ZM 10.3939 24.9287C 10.3982 25.0555 10.2497 25.1607 10.0659 25.163C 9.88105 25.167 9.73152 25.0644 9.72947 24.9396C 9.72947 24.8115 9.87465 24.7073 10.0595 24.7043C 10.2433 24.7007 10.3939 24.8026 10.3939 24.9287ZM 11.6689 24.88C 11.6909 25.0038 11.5631 25.1309 11.3806 25.1648C 11.2011 25.1974 11.0349 25.121 11.0121 24.9982C 10.9899 24.8714 11.1199 24.7443 11.2992 24.7114C 11.482 24.6799 11.6456 24.7542 11.6689 24.88Z" fill="black"/>
</g>
</g>
</g>
</g>
</svg>

